<mxfile host="app.diagrams.net" modified="2020-12-02T09:46:51.868Z" agent="5.0 (Macintosh; Intel Mac OS X 10_15_7) AppleWebKit/537.36 (KHTML, like Gecko) Chrome/86.0.4240.111 Safari/537.36" etag="z_lL4UVMoD6VGXbZD-_U" version="13.10.5" type="github">
  <diagram id="59HpngFKwvjpo1XDgIX6" name="Page-1">
    <mxGraphModel dx="706" dy="1809" grid="1" gridSize="10" guides="1" tooltips="1" connect="1" arrows="1" fold="1" page="1" pageScale="1" pageWidth="827" pageHeight="1169" math="0" shadow="0">
      <root>
        <mxCell id="0" />
        <mxCell id="1" parent="0" />
        <mxCell id="jNwVQHnBinpSqocJTMRk-1" value="" style="endArrow=classic;html=1;exitX=0.5;exitY=1;exitDx=0;exitDy=0;entryX=0.5;entryY=0;entryDx=0;entryDy=0;" edge="1" parent="1" source="jNwVQHnBinpSqocJTMRk-2">
          <mxGeometry width="50" height="50" relative="1" as="geometry">
            <mxPoint x="404" y="100" as="sourcePoint" />
            <mxPoint x="404" y="120" as="targetPoint" />
          </mxGeometry>
        </mxCell>
        <mxCell id="jNwVQHnBinpSqocJTMRk-2" value="&lt;font face=&quot;helvetica&quot;&gt;1.注册设备成功&lt;/font&gt;" style="rounded=1;whiteSpace=wrap;html=1;fillColor=#dae8fc;strokeColor=#6c8ebf;" vertex="1" parent="1">
          <mxGeometry x="344" y="40" width="120" height="60" as="geometry" />
        </mxCell>
        <mxCell id="jNwVQHnBinpSqocJTMRk-3" value="是" style="text;html=1;strokeColor=none;fillColor=none;align=center;verticalAlign=middle;whiteSpace=wrap;rounded=0;" vertex="1" parent="1">
          <mxGeometry x="414" y="190" width="40" height="20" as="geometry" />
        </mxCell>
        <mxCell id="jNwVQHnBinpSqocJTMRk-4" style="edgeStyle=orthogonalEdgeStyle;rounded=0;orthogonalLoop=1;jettySize=auto;html=1;exitX=0;exitY=0.5;exitDx=0;exitDy=0;entryX=1;entryY=0.5;entryDx=0;entryDy=0;" edge="1" parent="1" source="jNwVQHnBinpSqocJTMRk-5" target="jNwVQHnBinpSqocJTMRk-7">
          <mxGeometry relative="1" as="geometry" />
        </mxCell>
        <mxCell id="jNwVQHnBinpSqocJTMRk-5" value="需要标签推送能力" style="rhombus;whiteSpace=wrap;html=1;fillColor=#f5f5f5;strokeColor=#666666;fontColor=#333333;" vertex="1" parent="1">
          <mxGeometry x="334" y="120" width="140" height="60" as="geometry" />
        </mxCell>
        <mxCell id="jNwVQHnBinpSqocJTMRk-6" value="" style="edgeStyle=orthogonalEdgeStyle;rounded=0;orthogonalLoop=1;jettySize=auto;html=1;exitX=0.5;exitY=1;exitDx=0;exitDy=0;" edge="1" parent="1" source="jNwVQHnBinpSqocJTMRk-5">
          <mxGeometry relative="1" as="geometry">
            <mxPoint x="414" y="290" as="sourcePoint" />
            <mxPoint x="404" y="220" as="targetPoint" />
          </mxGeometry>
        </mxCell>
        <mxCell id="jNwVQHnBinpSqocJTMRk-7" value="&lt;font face=&quot;helvetica&quot;&gt;流程结束&lt;br&gt;&lt;/font&gt;" style="rounded=1;whiteSpace=wrap;html=1;fillColor=#e1d5e7;strokeColor=#9673a6;" vertex="1" parent="1">
          <mxGeometry x="149" y="120" width="120" height="60" as="geometry" />
        </mxCell>
        <mxCell id="jNwVQHnBinpSqocJTMRk-8" value="否" style="text;html=1;strokeColor=none;fillColor=none;align=center;verticalAlign=middle;whiteSpace=wrap;rounded=0;" vertex="1" parent="1">
          <mxGeometry x="294" y="130" width="40" height="20" as="geometry" />
        </mxCell>
        <mxCell id="jNwVQHnBinpSqocJTMRk-9" style="edgeStyle=orthogonalEdgeStyle;rounded=0;orthogonalLoop=1;jettySize=auto;html=1;exitX=0.5;exitY=1;exitDx=0;exitDy=0;entryX=0.5;entryY=0;entryDx=0;entryDy=0;" edge="1" parent="1" source="jNwVQHnBinpSqocJTMRk-10" target="jNwVQHnBinpSqocJTMRk-13">
          <mxGeometry relative="1" as="geometry" />
        </mxCell>
        <mxCell id="jNwVQHnBinpSqocJTMRk-10" value="&lt;font face=&quot;helvetica&quot;&gt;2.获取要绑定的标签列表&lt;/font&gt;" style="rounded=0;whiteSpace=wrap;html=1;fillColor=#f5f5f5;strokeColor=#666666;fontColor=#333333;" vertex="1" parent="1">
          <mxGeometry x="344" y="220" width="120" height="60" as="geometry" />
        </mxCell>
        <mxCell id="jNwVQHnBinpSqocJTMRk-11" style="edgeStyle=orthogonalEdgeStyle;rounded=0;orthogonalLoop=1;jettySize=auto;html=1;exitX=0.5;exitY=1;exitDx=0;exitDy=0;entryX=0.5;entryY=0;entryDx=0;entryDy=0;" edge="1" parent="1" source="jNwVQHnBinpSqocJTMRk-13" target="jNwVQHnBinpSqocJTMRk-17">
          <mxGeometry relative="1" as="geometry" />
        </mxCell>
        <mxCell id="jNwVQHnBinpSqocJTMRk-12" style="edgeStyle=orthogonalEdgeStyle;rounded=0;orthogonalLoop=1;jettySize=auto;html=1;exitX=0;exitY=0.5;exitDx=0;exitDy=0;entryX=0.5;entryY=1;entryDx=0;entryDy=0;" edge="1" parent="1" source="jNwVQHnBinpSqocJTMRk-13" target="jNwVQHnBinpSqocJTMRk-7">
          <mxGeometry relative="1" as="geometry" />
        </mxCell>
        <mxCell id="jNwVQHnBinpSqocJTMRk-13" value="是否获取成功" style="rhombus;whiteSpace=wrap;html=1;fillColor=#f5f5f5;strokeColor=#666666;fontColor=#333333;" vertex="1" parent="1">
          <mxGeometry x="334" y="320" width="140" height="60" as="geometry" />
        </mxCell>
        <mxCell id="jNwVQHnBinpSqocJTMRk-14" value="否" style="text;html=1;strokeColor=none;fillColor=none;align=center;verticalAlign=middle;whiteSpace=wrap;rounded=0;" vertex="1" parent="1">
          <mxGeometry x="259" y="320" width="40" height="20" as="geometry" />
        </mxCell>
        <mxCell id="jNwVQHnBinpSqocJTMRk-15" style="edgeStyle=orthogonalEdgeStyle;rounded=0;orthogonalLoop=1;jettySize=auto;html=1;exitX=0.5;exitY=1;exitDx=0;exitDy=0;entryX=0.5;entryY=0;entryDx=0;entryDy=0;" edge="1" parent="1" source="jNwVQHnBinpSqocJTMRk-17" target="jNwVQHnBinpSqocJTMRk-20">
          <mxGeometry relative="1" as="geometry" />
        </mxCell>
        <mxCell id="jNwVQHnBinpSqocJTMRk-16" style="edgeStyle=orthogonalEdgeStyle;rounded=0;orthogonalLoop=1;jettySize=auto;html=1;exitX=0;exitY=0.5;exitDx=0;exitDy=0;entryX=0.5;entryY=0;entryDx=0;entryDy=0;" edge="1" parent="1" source="jNwVQHnBinpSqocJTMRk-17" target="jNwVQHnBinpSqocJTMRk-25">
          <mxGeometry relative="1" as="geometry" />
        </mxCell>
        <mxCell id="jNwVQHnBinpSqocJTMRk-17" value="历史绑定的标签需要关心推送" style="rhombus;whiteSpace=wrap;html=1;fillColor=#f5f5f5;strokeColor=#666666;fontColor=#333333;" vertex="1" parent="1">
          <mxGeometry x="299" y="420" width="210" height="60" as="geometry" />
        </mxCell>
        <mxCell id="jNwVQHnBinpSqocJTMRk-18" value="是" style="text;html=1;strokeColor=none;fillColor=none;align=center;verticalAlign=middle;whiteSpace=wrap;rounded=0;" vertex="1" parent="1">
          <mxGeometry x="414" y="390" width="40" height="20" as="geometry" />
        </mxCell>
        <mxCell id="jNwVQHnBinpSqocJTMRk-19" style="edgeStyle=orthogonalEdgeStyle;rounded=0;orthogonalLoop=1;jettySize=auto;html=1;exitX=0.5;exitY=1;exitDx=0;exitDy=0;entryX=0.5;entryY=0;entryDx=0;entryDy=0;" edge="1" parent="1" source="jNwVQHnBinpSqocJTMRk-20" target="jNwVQHnBinpSqocJTMRk-22">
          <mxGeometry relative="1" as="geometry" />
        </mxCell>
        <mxCell id="jNwVQHnBinpSqocJTMRk-20" value="&lt;font color=&quot;#ea6b66&quot;&gt;&lt;font face=&quot;helvetica&quot;&gt;3.按需解绑历史标签:&amp;nbsp;&lt;br&gt;&lt;/font&gt;&lt;span style=&quot;font-family: &amp;#34;helvetica&amp;#34;&quot;&gt;delTags&lt;/span&gt;&lt;/font&gt;" style="rounded=0;whiteSpace=wrap;html=1;fillColor=#fff2cc;strokeColor=#d6b656;" vertex="1" parent="1">
          <mxGeometry x="344" y="520" width="120" height="60" as="geometry" />
        </mxCell>
        <mxCell id="jNwVQHnBinpSqocJTMRk-21" style="edgeStyle=orthogonalEdgeStyle;rounded=0;orthogonalLoop=1;jettySize=auto;html=1;exitX=0.5;exitY=1;exitDx=0;exitDy=0;entryX=0.5;entryY=0;entryDx=0;entryDy=0;" edge="1" parent="1" source="jNwVQHnBinpSqocJTMRk-22" target="jNwVQHnBinpSqocJTMRk-29">
          <mxGeometry relative="1" as="geometry" />
        </mxCell>
        <mxCell id="jNwVQHnBinpSqocJTMRk-22" value="&lt;font color=&quot;#ea6b66&quot;&gt;&lt;font face=&quot;helvetica&quot;&gt;5.绑定新标签列表：&lt;br&gt;调用appendTag&lt;/font&gt;&lt;span style=&quot;font-family: &amp;#34;helvetica&amp;#34;&quot;&gt;s&lt;/span&gt;&lt;/font&gt;" style="rounded=0;whiteSpace=wrap;html=1;fillColor=#fff2cc;strokeColor=#d6b656;" vertex="1" parent="1">
          <mxGeometry x="344" y="620" width="120" height="60" as="geometry" />
        </mxCell>
        <mxCell id="jNwVQHnBinpSqocJTMRk-23" value="是" style="text;html=1;strokeColor=none;fillColor=none;align=center;verticalAlign=middle;whiteSpace=wrap;rounded=0;" vertex="1" parent="1">
          <mxGeometry x="414" y="490" width="40" height="20" as="geometry" />
        </mxCell>
        <mxCell id="jNwVQHnBinpSqocJTMRk-24" style="edgeStyle=orthogonalEdgeStyle;rounded=0;orthogonalLoop=1;jettySize=auto;html=1;exitX=0.5;exitY=1;exitDx=0;exitDy=0;entryX=0;entryY=0.5;entryDx=0;entryDy=0;" edge="1" parent="1" source="jNwVQHnBinpSqocJTMRk-25" target="jNwVQHnBinpSqocJTMRk-29">
          <mxGeometry relative="1" as="geometry" />
        </mxCell>
        <mxCell id="jNwVQHnBinpSqocJTMRk-25" value="&lt;font face=&quot;helvetica&quot; color=&quot;#ea6b66&quot;&gt;4.清空历史标签并绑定新标签：clearAndAppendTags&lt;/font&gt;" style="rounded=0;whiteSpace=wrap;html=1;fillColor=#fff2cc;strokeColor=#d6b656;align=left;" vertex="1" parent="1">
          <mxGeometry x="124" y="520" width="180" height="60" as="geometry" />
        </mxCell>
        <mxCell id="jNwVQHnBinpSqocJTMRk-26" value="否" style="text;html=1;strokeColor=none;fillColor=none;align=center;verticalAlign=middle;whiteSpace=wrap;rounded=0;" vertex="1" parent="1">
          <mxGeometry x="244" y="420" width="40" height="20" as="geometry" />
        </mxCell>
        <mxCell id="jNwVQHnBinpSqocJTMRk-27" style="edgeStyle=orthogonalEdgeStyle;rounded=0;orthogonalLoop=1;jettySize=auto;html=1;exitX=1;exitY=0.5;exitDx=0;exitDy=0;entryX=0;entryY=0.5;entryDx=0;entryDy=0;" edge="1" parent="1" source="jNwVQHnBinpSqocJTMRk-29" target="jNwVQHnBinpSqocJTMRk-32">
          <mxGeometry relative="1" as="geometry" />
        </mxCell>
        <mxCell id="jNwVQHnBinpSqocJTMRk-28" style="edgeStyle=orthogonalEdgeStyle;rounded=0;orthogonalLoop=1;jettySize=auto;html=1;exitX=0.5;exitY=1;exitDx=0;exitDy=0;entryX=0.5;entryY=0;entryDx=0;entryDy=0;" edge="1" parent="1" source="jNwVQHnBinpSqocJTMRk-29" target="jNwVQHnBinpSqocJTMRk-37">
          <mxGeometry relative="1" as="geometry" />
        </mxCell>
        <mxCell id="jNwVQHnBinpSqocJTMRk-29" value="&lt;font face=&quot;helvetica&quot;&gt;6.用户正常使用App&lt;br&gt;&lt;/font&gt;" style="rounded=0;whiteSpace=wrap;html=1;fillColor=#f5f5f5;strokeColor=#666666;fontColor=#333333;" vertex="1" parent="1">
          <mxGeometry x="344" y="720" width="120" height="60" as="geometry" />
        </mxCell>
        <mxCell id="jNwVQHnBinpSqocJTMRk-30" style="edgeStyle=orthogonalEdgeStyle;rounded=0;orthogonalLoop=1;jettySize=auto;html=1;exitX=0.5;exitY=0;exitDx=0;exitDy=0;entryX=1;entryY=0.5;entryDx=0;entryDy=0;" edge="1" parent="1" source="jNwVQHnBinpSqocJTMRk-32" target="jNwVQHnBinpSqocJTMRk-17">
          <mxGeometry relative="1" as="geometry" />
        </mxCell>
        <mxCell id="jNwVQHnBinpSqocJTMRk-31" style="edgeStyle=orthogonalEdgeStyle;rounded=0;orthogonalLoop=1;jettySize=auto;html=1;exitX=0.5;exitY=1;exitDx=0;exitDy=0;entryX=1;entryY=0.75;entryDx=0;entryDy=0;" edge="1" parent="1" source="jNwVQHnBinpSqocJTMRk-32" target="jNwVQHnBinpSqocJTMRk-29">
          <mxGeometry relative="1" as="geometry" />
        </mxCell>
        <mxCell id="jNwVQHnBinpSqocJTMRk-32" value="需要变更绑定的标签列表" style="rhombus;whiteSpace=wrap;html=1;fillColor=#f5f5f5;strokeColor=#666666;fontColor=#333333;" vertex="1" parent="1">
          <mxGeometry x="527" y="720" width="177" height="60" as="geometry" />
        </mxCell>
        <mxCell id="jNwVQHnBinpSqocJTMRk-33" value="是" style="text;html=1;strokeColor=none;fillColor=none;align=center;verticalAlign=middle;whiteSpace=wrap;rounded=0;" vertex="1" parent="1">
          <mxGeometry x="614" y="690" width="40" height="20" as="geometry" />
        </mxCell>
        <mxCell id="jNwVQHnBinpSqocJTMRk-34" value="否" style="text;html=1;strokeColor=none;fillColor=none;align=center;verticalAlign=middle;whiteSpace=wrap;rounded=0;" vertex="1" parent="1">
          <mxGeometry x="614" y="780" width="40" height="20" as="geometry" />
        </mxCell>
        <mxCell id="jNwVQHnBinpSqocJTMRk-35" style="edgeStyle=orthogonalEdgeStyle;rounded=0;orthogonalLoop=1;jettySize=auto;html=1;exitX=0.5;exitY=1;exitDx=0;exitDy=0;entryX=0.5;entryY=0;entryDx=0;entryDy=0;" edge="1" parent="1" source="jNwVQHnBinpSqocJTMRk-37" target="jNwVQHnBinpSqocJTMRk-38">
          <mxGeometry relative="1" as="geometry" />
        </mxCell>
        <mxCell id="jNwVQHnBinpSqocJTMRk-36" style="edgeStyle=orthogonalEdgeStyle;rounded=0;orthogonalLoop=1;jettySize=auto;html=1;exitX=0;exitY=0.5;exitDx=0;exitDy=0;entryX=0;entryY=0.75;entryDx=0;entryDy=0;" edge="1" parent="1" source="jNwVQHnBinpSqocJTMRk-37" target="jNwVQHnBinpSqocJTMRk-29">
          <mxGeometry relative="1" as="geometry" />
        </mxCell>
        <mxCell id="jNwVQHnBinpSqocJTMRk-37" value="完全关闭标签推送能力" style="rhombus;whiteSpace=wrap;html=1;fillColor=#f5f5f5;strokeColor=#666666;fontColor=#333333;" vertex="1" parent="1">
          <mxGeometry x="315.5" y="820" width="177" height="60" as="geometry" />
        </mxCell>
        <mxCell id="jNwVQHnBinpSqocJTMRk-38" value="&lt;font face=&quot;helvetica&quot;&gt;&lt;font color=&quot;#ea6b66&quot;&gt;7.调用清空标签:clearTags&lt;/font&gt;&lt;br&gt;&lt;/font&gt;" style="rounded=0;whiteSpace=wrap;html=1;fillColor=#fff2cc;strokeColor=#d6b656;" vertex="1" parent="1">
          <mxGeometry x="344" y="920" width="120" height="60" as="geometry" />
        </mxCell>
        <mxCell id="jNwVQHnBinpSqocJTMRk-39" value="是" style="text;html=1;strokeColor=none;fillColor=none;align=center;verticalAlign=middle;whiteSpace=wrap;rounded=0;" vertex="1" parent="1">
          <mxGeometry x="409" y="890" width="40" height="20" as="geometry" />
        </mxCell>
        <mxCell id="jNwVQHnBinpSqocJTMRk-40" value="否" style="text;html=1;strokeColor=none;fillColor=none;align=center;verticalAlign=middle;whiteSpace=wrap;rounded=0;" vertex="1" parent="1">
          <mxGeometry x="254" y="790" width="40" height="20" as="geometry" />
        </mxCell>
      </root>
    </mxGraphModel>
  </diagram>
</mxfile>
